# xmcd CD database file
#
# Track frame offsets:
#	150
#	14026
#	27056
#	38969
#	54844
#	67450
#	85533
#	105687
#	120283
#	130480
#	143289
#	160149
#	176486
#	188330
#	200775
#	210874
#	218551
#	230388
#	242670
#	254320
#
# Disc length: 3525 seconds
#
# Revision: 0
# Processed by: cddbd v1.5.2PL0 Copyright (c) Steve Scherf et al.
# Submitted via: CDex 1.70beta2
#
DISCID=070dc314
DTITLE=Diverse - Trucker and Country Hits   CD3
DYEAR=2008
DGENRE=Country
TTITLE0=Juice Newton - Listen To The Radio
TTITLE1=Hank Williams - Jambalaya
TTITLE2=Johnny Cash and June Carter - Jackson (Live)
TTITLE3=Connie Francis - It Doesn't Matter Anymore
TTITLE4=Billie Joe Spears - 57 Chevrolet
TTITLE5=Bobby Goldsboro - Honey
TTITLE6=Emmylou Harris - Love Hurts
TTITLE7=Robert Mitchum -  O He, O Hi, O Ho
TTITLE8=Willie Nelson - Eight More Miles To Louisville
TTITLE9=Faron Young - It's Four In The Morning
TTITLE10=Linda Ronstadt - I'm Gonna Love
TTITLE11=Rex Allen - Memory Train
TTITLE12=Donna Fargo - Funny Face
TTITLE13=Frankie Lane - Moonlight Gamble
TTITLE14=Porter Waggoner - Green Green Grass Of Home
TTITLE15=Jim Reeves - The Oklahoma Hills
TTITLE16=Sandy Posey - Bring Him Home Safely To Me
TTITLE17=Merle Haggard - If We Make It Through December
TTITLE18=Donna Fargo - The Happiest Girl In The USA
TTITLE19=Dave Dudley - Seven Lonely Days
EXTD=YEAR: 2008
EXTT0=
EXTT1=
EXTT2=
EXTT3=
EXTT4=
EXTT5=
EXTT6=
EXTT7=
EXTT8=
EXTT9=
EXTT10=
EXTT11=
EXTT12=
EXTT13=
EXTT14=
EXTT15=
EXTT16=
EXTT17=
EXTT18=
EXTT19=
PLAYORDER=
